<?xml version="1.0" standalone="no"?>
<!DOCTYPE svg PUBLIC "-//W3C//DTD SVG 20010904//EN"
 "http://www.w3.org/TR/2001/REC-SVG-20010904/DTD/svg10.dtd">
<svg version="1.0" xmlns="http://www.w3.org/2000/svg"
 width="180.000000pt" height="180.000000pt" viewBox="0 0 180.000000 180.000000"
 preserveAspectRatio="xMidYMid meet">

<g transform="translate(0.000000,180.000000) scale(0.100000,-0.100000)"
fill="#000000" stroke="none">
<path d="M123 1789 c-45 -13 -100 -71 -113 -118 -7 -27 -9 -284 -8 -788 3
-713 4 -750 22 -786 11 -22 37 -51 59 -65 l41 -27 775 0 776 0 37 23 c20 13
47 40 60 60 l23 37 0 770 c0 737 -1 772 -19 808 -11 22 -37 51 -59 65 l-41 27
-760 2 c-456 1 -774 -2 -793 -8z m919 -399 c103 -38 164 -116 175 -223 10
-101 -37 -190 -122 -228 l-39 -18 27 -10 c16 -6 32 -11 38 -11 18 0 91 -74
112 -114 16 -32 21 -59 22 -121 0 -98 -28 -162 -93 -212 -73 -56 -117 -63
-384 -63 l-238 0 0 510 0 510 225 0 c199 0 230 -2 277 -20z"/>
<path d="M670 1130 l0 -172 148 4 c132 3 151 5 187 26 113 65 123 218 19 283
-36 22 -51 24 -196 28 l-158 3 0 -172z"/>
<path d="M670 674 l0 -176 173 4 c119 2 180 8 197 17 77 41 109 109 89 183
-16 62 -45 97 -103 124 -47 22 -64 24 -203 24 l-153 0 0 -176z"/>
</g>
</svg>
